<?xml version="1.0" encoding="utf-8"?>
<!-- Uploaded to: SVG Repo, www.svgrepo.com, Generator: SVG Repo Mixer Tools -->
<svg fill="#000000" width="800px" height="800px" viewBox="0 0 32 32" version="1.1" xmlns="http://www.w3.org/2000/svg">
<title>shuriken</title>
<path d="M20.238 8.218c-0.247 1.050-1.19 1.832-2.315 1.832-1.314 0-2.379-1.065-2.379-2.379 0-0.234 0.034-0.46 0.098-0.674l-7.851-4.778 0.212 9.172c1.016 0.271 1.765 1.197 1.765 2.299 0 1.314-1.065 2.379-2.379 2.379-0.214 0-0.421-0.029-0.618-0.082l-4.768 7.835 8.921-0.206c0.25-1.046 1.191-1.824 2.313-1.824 1.314 0 2.379 1.065 2.379 2.379 0 0.186-0.022 0.366-0.062 0.539l8.051 4.9-0.2-8.644c-1.13-0.184-1.994-1.165-1.994-2.348 0-1.314 1.065-2.379 2.379-2.379 0.19 0 0.375 0.023 0.553 0.065l5.050-8.297-9.155 0.212zM18.116 20.102c-2.314 1.336-5.272 0.543-6.607-1.771s-0.543-5.272 1.77-6.607c2.314-1.336 5.272-0.543 6.607 1.771s0.543 5.272-1.77 6.608z"></path>
</svg>